<svg width="167" height="25" viewBox="0 0 167 25" fill="none" xmlns="http://www.w3.org/2000/svg">
<path d="M26.488 0.348067V24.6432H21.615V8.84092L15.1061 24.6432H11.4166L4.87295 8.84092V24.6432H0V0.348067H5.53428L13.2614 18.4128L20.9885 0.348067H26.488Z" fill="#FAFFFC"/>
<path d="M53.1296 0.348067L44.219 24.6432H38.3019L29.3913 0.348067H34.6124L41.2952 19.6658L47.9433 0.348067H53.1296Z" fill="#FAFFFC"/>
<path d="M64.4396 24.8868C62.7457 24.8868 61.2142 24.5968 59.8451 24.0167C58.4992 23.4366 57.4318 22.6012 56.6429 21.5106C55.8539 20.42 55.4478 19.1321 55.4246 17.647H60.6456C60.7153 18.6448 61.0633 19.4338 61.6898 20.0139C62.3396 20.594 63.2213 20.8841 64.3352 20.8841C65.4722 20.8841 66.3656 20.6172 67.0153 20.0835C67.665 19.5266 67.9899 18.8073 67.9899 17.9255C67.9899 17.2062 67.7694 16.6144 67.3285 16.1503C66.8877 15.6863 66.3307 15.3266 65.6578 15.0713C65.0081 14.7929 64.1031 14.4912 62.9429 14.1664C61.365 13.7023 60.0771 13.2498 59.0793 12.8089C58.1047 12.3448 57.2578 11.6603 56.5384 10.7553C55.8423 9.82711 55.4942 8.59727 55.4942 7.06578C55.4942 5.6271 55.8539 4.37405 56.5732 3.30664C57.2926 2.23923 58.302 1.42708 59.6014 0.870169C60.9009 0.290056 62.386 0 64.0567 0C66.5628 0 68.5932 0.614919 70.1479 1.84476C71.7258 3.05139 72.596 4.74532 72.7584 6.92655H67.3982C67.3517 6.09119 66.9921 5.40665 66.3191 4.87295C65.6694 4.31604 64.7992 4.03759 63.7086 4.03759C62.7573 4.03759 61.9915 4.28123 61.4114 4.76853C60.8545 5.25582 60.576 5.96356 60.576 6.89174C60.576 7.54147 60.7849 8.08677 61.2025 8.52766C61.6434 8.94534 62.1771 9.29341 62.8037 9.57186C63.4534 9.82711 64.3584 10.1288 65.5186 10.4768C67.0965 10.9409 68.3843 11.405 69.3821 11.8691C70.3799 12.3332 71.2385 13.0293 71.9578 13.9575C72.6772 14.8857 73.0369 16.1039 73.0369 17.6122C73.0369 18.9117 72.7004 20.1183 72.0275 21.2321C71.3545 22.346 70.3683 23.2393 69.0689 23.9123C67.7694 24.562 66.2263 24.8868 64.4396 24.8868Z" fill="#FAFFFC"/>
<path d="M93.7947 0.348067V4.28123H87.3207V24.6432H82.4477V4.28123H75.9737V0.348067H93.7947Z" fill="#FAFFFC"/>
<path d="M100.497 17.5368C100.497 16.1426 100.809 14.8973 101.431 13.8009C102.067 12.6909 102.927 11.8314 104.01 11.2223C105.106 10.5996 106.331 10.2883 107.685 10.2883C109.269 10.2883 110.656 10.6944 111.847 11.5065C113.038 12.3187 113.871 13.4422 114.345 14.877H111.076C110.751 14.2002 110.291 13.6926 109.695 13.3542C109.113 13.0158 108.436 12.8466 107.665 12.8466C106.839 12.8466 106.101 13.0429 105.451 13.4354C104.815 13.8144 104.314 14.3559 103.949 15.0597C103.597 15.7636 103.421 16.5893 103.421 17.5368C103.421 18.4708 103.597 19.2965 103.949 20.0139C104.314 20.7178 104.815 21.266 105.451 21.6585C106.101 22.0375 106.839 22.227 107.665 22.227C108.436 22.227 109.113 22.0578 109.695 21.7194C110.291 21.3675 110.751 20.8531 111.076 20.1763H114.345C113.871 21.6247 113.038 22.7549 111.847 23.5671C110.67 24.3657 109.282 24.765 107.685 24.765C106.331 24.765 105.106 24.4605 104.01 23.8513C102.927 23.2287 102.067 22.3692 101.431 21.2727C100.809 20.1763 100.497 18.931 100.497 17.5368Z" fill="#FAFFFC"/>
<path d="M121.767 24.8259C120.684 24.8259 119.71 24.5891 118.843 24.1153C117.977 23.628 117.294 22.9444 116.793 22.0646C116.305 21.1848 116.062 20.1696 116.062 19.019C116.062 17.8684 116.312 16.8532 116.813 15.9734C117.327 15.0936 118.025 14.4168 118.904 13.943C119.784 13.4557 120.766 13.2121 121.848 13.2121C122.931 13.2121 123.913 13.4557 124.793 13.943C125.672 14.4168 126.363 15.0936 126.864 15.9734C127.378 16.8532 127.635 17.8684 127.635 19.019C127.635 20.1696 127.371 21.1848 126.843 22.0646C126.329 22.9444 125.625 23.628 124.732 24.1153C123.852 24.5891 122.864 24.8259 121.767 24.8259ZM121.767 22.3489C122.282 22.3489 122.762 22.227 123.209 21.9834C123.669 21.7262 124.034 21.3472 124.305 20.8464C124.576 20.3455 124.711 19.7364 124.711 19.019C124.711 17.9497 124.427 17.1307 123.859 16.5622C123.304 15.9802 122.62 15.6892 121.808 15.6892C120.996 15.6892 120.312 15.9802 119.757 16.5622C119.216 17.1307 118.945 17.9497 118.945 19.019C118.945 20.0883 119.209 20.914 119.737 21.4961C120.278 22.0646 120.955 22.3489 121.767 22.3489Z" fill="#FAFFFC"/>
<path d="M134.877 15.7298H132.908V24.6432H130.025V15.7298H128.746V13.3948H130.025V12.8263C130.025 11.4456 130.417 10.4304 131.202 9.7807C131.987 9.13098 133.172 8.82642 134.756 8.86703V11.2629C134.065 11.2494 133.585 11.3644 133.314 11.6081C133.043 11.8517 132.908 12.2916 132.908 12.9278V13.3948H134.877V15.7298Z" fill="#FAFFFC"/>
<path d="M141.877 15.7298H139.907V24.6432H137.024V15.7298H135.745V13.3948H137.024V12.8263C137.024 11.4456 137.417 10.4304 138.202 9.7807C138.987 9.13098 140.171 8.82642 141.755 8.86703V11.2629C141.065 11.2494 140.584 11.3644 140.313 11.6081C140.043 11.8517 139.907 12.2916 139.907 12.9278V13.3948H141.877V15.7298Z" fill="#FAFFFC"/>
<path d="M154.175 18.7754C154.175 19.1814 154.148 19.5469 154.094 19.8718H145.871C145.939 20.6839 146.223 21.3201 146.724 21.7803C147.225 22.2406 147.84 22.4707 148.571 22.4707C149.627 22.4707 150.378 22.0172 150.825 21.1103H153.891C153.566 22.1932 152.944 23.0866 152.023 23.7904C151.103 24.4808 149.972 24.8259 148.632 24.8259C147.549 24.8259 146.575 24.5891 145.709 24.1153C144.856 23.628 144.186 22.9444 143.698 22.0646C143.225 21.1848 142.988 20.1696 142.988 19.019C142.988 17.8549 143.225 16.8329 143.698 15.9531C144.172 15.0733 144.836 14.3965 145.688 13.9227C146.541 13.449 147.522 13.2121 148.632 13.2121C149.702 13.2121 150.656 13.4422 151.495 13.9024C152.348 14.3626 153.004 15.0191 153.465 15.8719C153.938 16.7111 154.175 17.6789 154.175 18.7754ZM151.231 17.9632C151.218 17.2323 150.954 16.6502 150.439 16.2171C149.925 15.7704 149.296 15.547 148.551 15.547C147.847 15.547 147.252 15.7636 146.764 16.1968C146.291 16.6164 146 17.2052 145.891 17.9632H151.231Z" fill="#FAFFFC"/>
<path d="M166.707 18.7754C166.707 19.1814 166.68 19.5469 166.625 19.8718H158.402C158.47 20.6839 158.754 21.3201 159.255 21.7803C159.756 22.2406 160.372 22.4707 161.103 22.4707C162.159 22.4707 162.91 22.0172 163.357 21.1103H166.422C166.098 22.1932 165.475 23.0866 164.554 23.7904C163.634 24.4808 162.504 24.8259 161.164 24.8259C160.081 24.8259 159.106 24.5891 158.24 24.1153C157.387 23.628 156.717 22.9444 156.23 22.0646C155.756 21.1848 155.519 20.1696 155.519 19.019C155.519 17.8549 155.756 16.8329 156.23 15.9531C156.704 15.0733 157.367 14.3965 158.22 13.9227C159.072 13.449 160.054 13.2121 161.164 13.2121C162.233 13.2121 163.187 13.4422 164.027 13.9024C164.879 14.3626 165.536 15.0191 165.996 15.8719C166.47 16.7111 166.707 17.6789 166.707 18.7754ZM163.763 17.9632C163.749 17.2323 163.485 16.6502 162.971 16.2171C162.456 15.7704 161.827 15.547 161.082 15.547C160.379 15.547 159.783 15.7636 159.296 16.1968C158.822 16.6164 158.531 17.2052 158.423 17.9632H163.763Z" fill="#FAFFFC"/>
</svg>
